<svg width="20" height="21" viewBox="0 0 20 21" fill="none" xmlns="http://www.w3.org/2000/svg">
<path d="M17.5 6.01823V14.3516C17.5 16.8516 16.25 18.5182 13.3333 18.5182H6.66667C3.75 18.5182 2.5 16.8516 2.5 14.3516V6.01823C2.5 3.51823 3.75 1.85156 6.66667 1.85156H13.3333C16.25 1.85156 17.5 3.51823 17.5 6.01823Z" stroke="white" stroke-width="1.5" stroke-miterlimit="10" stroke-linecap="round" stroke-linejoin="round"/>
<path d="M12.9163 1.85156V8.40155C12.9163 8.76822 12.483 8.95155 12.2163 8.70988L10.283 6.92659C10.1247 6.77659 9.87465 6.77659 9.71632 6.92659L7.78303 8.70988C7.51636 8.95155 7.08301 8.76822 7.08301 8.40155V1.85156H12.9163Z" stroke="white" stroke-width="1.5" stroke-miterlimit="10" stroke-linecap="round" stroke-linejoin="round"/>
<path d="M11.042 11.8516H14.5837" stroke="white" stroke-width="1.5" stroke-miterlimit="10" stroke-linecap="round" stroke-linejoin="round"/>
<path d="M7.5 15.1846H14.5833" stroke="white" stroke-width="1.5" stroke-miterlimit="10" stroke-linecap="round" stroke-linejoin="round"/>
</svg>
