<svg width="20" height="21" viewBox="0 0 20 21" fill="none" xmlns="http://www.w3.org/2000/svg">
<path d="M15.4593 15.5313L15.1366 16.0374L15.5596 16.4632L17.5994 18.5162L17.4957 18.6198L15.426 16.5833L15.0048 16.1689L14.5033 16.4814C14.0436 16.7679 13.4971 16.9346 12.9167 16.9346C11.2475 16.9346 9.91667 15.6037 9.91667 13.9346C9.91667 12.2655 11.2475 10.9346 12.9167 10.9346C14.5858 10.9346 15.9167 12.2655 15.9167 13.9346C15.9167 14.5257 15.7488 15.0773 15.4593 15.5313ZM4.16667 16.7679H7.43898C7.46806 16.824 7.49798 16.8796 7.52869 16.9346H4.16667C3.96789 16.9346 3.785 16.8731 3.63574 16.7679H4.16667ZM16.75 4.35124V9.09469C16.6952 9.05044 16.6396 9.00703 16.5833 8.96448V4.35124V3.82031C16.6885 3.96957 16.75 4.15246 16.75 4.35124ZM15.8333 3.43457C16.0321 3.43457 16.215 3.49604 16.3643 3.60124H15.8333H4.16667H3.63574C3.785 3.49604 3.96789 3.43457 4.16667 3.43457H15.8333ZM3.41667 3.82031V4.35124V16.0179V16.5488C3.31147 16.3996 3.25 16.2167 3.25 16.0179V4.35124C3.25 4.15246 3.31147 3.96957 3.41667 3.82031ZM12.9167 11.1012C12.1652 11.1012 11.4446 11.3997 10.9132 11.9311C10.3818 12.4625 10.0833 13.1831 10.0833 13.9346C10.0833 14.686 10.3818 15.4067 10.9132 15.938C11.4446 16.4694 12.1652 16.7679 12.9167 16.7679C13.6681 16.7679 14.3888 16.4694 14.9201 15.938C15.4515 15.4067 15.75 14.686 15.75 13.9346C15.75 13.1831 15.4515 12.4625 14.9201 11.9311C14.3888 11.3997 13.6681 11.1012 12.9167 11.1012ZM6.58333 6.7679H13.4167V6.93457H6.58333V6.7679ZM6.58333 10.1012H8.07678C8.03254 10.1561 7.98913 10.2117 7.94657 10.2679H6.58333V10.1012ZM6.58333 13.4346H6.77062C6.76609 13.49 6.76228 13.5456 6.75922 13.6012H6.58333V13.4346Z" stroke="white" stroke-width="1.5"/>
</svg>
