<svg width="72" height="72" viewBox="0 0 72 72" fill="none" xmlns="http://www.w3.org/2000/svg">
<rect width="72" height="72" rx="36" fill="#007D53" fill-opacity="0.08"/>
<path d="M20.2753 49.5668L20.7662 48.6341L34.6729 22.2124L35.166 21.2755C34.8464 21.4371 34.5672 21.6979 34.3777 22.0579L20.2753 49.5668ZM20.2753 49.5668C20.2285 49.2118 20.2857 48.8352 20.4727 48.4796C20.4727 48.4795 20.4728 48.4794 20.4729 48.4792L34.3776 22.058L20.2753 49.5668ZM49.9069 50.8327H50.964C50.6708 51.0407 50.3093 51.166 49.9053 51.166H22.0953C21.6921 51.166 21.3311 51.0407 21.0382 50.8327H22.0936H49.9069ZM51.7263 49.5687L51.2343 48.6341L37.3276 22.2124L36.8345 21.2755C37.1541 21.4371 37.4334 21.698 37.6229 22.058L51.5279 48.478C51.7158 48.835 51.7733 49.2128 51.7263 49.5687ZM36.0003 37.8327C35.9561 37.8327 35.9137 37.8151 35.8824 37.7839L34.8642 38.8021L35.8824 37.7839C35.8512 37.7526 35.8336 37.7102 35.8336 37.666V32.666C35.8336 32.6218 35.8512 32.5794 35.8824 32.5482C35.9137 32.5169 35.9561 32.4994 36.0003 32.4994C36.0445 32.4994 36.0869 32.5169 36.1181 32.5482C36.1494 32.5794 36.1669 32.6218 36.1669 32.666V37.666C36.1669 37.7102 36.1494 37.7526 36.1181 37.7839C36.0869 37.8152 36.0445 37.8327 36.0003 37.8327ZM35.0003 43.4994C35.0003 43.2342 35.1056 42.9798 35.2932 42.7923C35.4807 42.6047 35.7351 42.4994 36.0003 42.4994C36.2655 42.4994 36.5198 42.6047 36.7074 42.7923C36.8949 42.9798 37.0003 43.2342 37.0003 43.4994C37.0003 43.7646 36.8949 44.0189 36.7074 44.2065C36.5198 44.394 36.2655 44.4994 36.0003 44.4994C35.7351 44.4994 35.4807 44.394 35.2932 44.2065C35.1056 44.0189 35.0003 43.7646 35.0003 43.4994Z" stroke="#007D53" stroke-width="3"/>
</svg>
