<svg xmlns="http://www.w3.org/2000/svg" width="216" height="144" viewBox="0 0 216 144" fill="none">
  <path
    d="M192.081 43.2778L189.325 56.6266L187.551 54.8957L184.532 57.0499L182.226 54.1843L177.053 57.9456L172.632 50.5526L167.702 53.4413L165.746 50.7456L159.485 54.2736L157.602 50.2387L161.991 28.9814L185.52 33.84L192.081 43.2778Z"
    fill="#EBEBEB" />
  <path d="M185.52 33.8398L192.081 43.2776L183.919 41.5928L185.52 33.8398Z" fill="#DBDBDB" />
  <path
    d="M188.737 59.2932L184.696 78.8772L153.002 72.3338L157.014 52.9082L158.897 56.9402L165.161 53.4122L167.114 56.1079L172.047 53.2221L176.465 60.6151L181.641 56.8538L183.945 59.7165L186.966 57.5652L188.737 59.2932Z"
    fill="#EBEBEB" />
  <path
    d="M143.375 56.9977L111.075 58.9964L108.509 17.5359L132.494 16.0498L141.298 23.437L143.375 56.9977Z"
    fill="#EBEBEB" />
  <path d="M132.494 16.0498L141.298 23.437L132.98 23.9525L132.494 16.0498Z" fill="#DBDBDB" />
  <path
    d="M123.552 43.9486L123.425 43.0126C123.1 41.0743 123.629 38.9057 125.314 36.6391C126.835 34.6231 127.659 33.1831 127.566 31.5473C127.463 29.7041 126.239 28.5406 123.961 28.6327C122.659 28.7003 121.408 29.1624 120.375 29.9575L119.381 27.7313C120.533 26.7953 122.549 26.1041 124.465 26.0033C128.621 25.7729 130.642 28.2324 130.801 30.977C130.939 33.4337 129.666 35.2798 128.047 37.4369C126.561 39.4039 126.075 41.0254 126.285 42.8599L126.374 43.7988L123.552 43.9486ZM123.039 49.049C122.964 47.7127 123.814 46.722 125.078 46.6529C126.342 46.5838 127.264 47.4708 127.339 48.81C127.408 50.0743 126.633 51.0938 125.297 51.1687C124.021 51.2407 123.1 50.3134 123.028 49.049H123.039Z"
    fill="#DBDBDB" />
  <path
    d="M42.7616 36.8955L39.513 35.4238L39.0608 36.4174C38.994 36.5594 38.8899 36.6806 38.7595 36.7678C38.6291 36.8551 38.4774 36.9052 38.3206 36.9128C38.1421 36.9186 37.9641 36.936 37.7878 36.9646C37.6331 36.9876 37.475 36.9681 37.3304 36.9083C37.1859 36.8484 37.0603 36.7504 36.967 36.6248L36.3306 35.7349L33.4304 37.8142L34.0669 38.7041C34.1554 38.8326 34.2075 38.9826 34.2176 39.1383C34.2278 39.294 34.1956 39.4495 34.1245 39.5883C34.0424 39.7467 33.9683 39.9091 33.9027 40.075C33.8457 40.2213 33.7498 40.3493 33.6255 40.4452C33.5012 40.5411 33.3531 40.6013 33.1971 40.6193L32.1114 40.7259L32.4598 44.2769L33.5514 44.1675C33.7079 44.155 33.8649 44.1854 34.0054 44.2554C34.146 44.3254 34.2648 44.4325 34.3491 44.5649C34.3952 44.6398 34.4442 44.7118 34.496 44.7838C34.5478 44.8558 34.5997 44.9249 34.6544 44.9941C34.7538 45.115 34.8177 45.2611 34.8391 45.4162C34.8604 45.5712 34.8384 45.7292 34.7754 45.8725L34.3203 46.8747L37.5718 48.3493L38.024 47.3499C38.0914 47.208 38.1962 47.0872 38.3271 47.0004C38.458 46.9137 38.6101 46.8642 38.767 46.8574C38.9436 46.8501 39.1195 46.8328 39.2941 46.8056C39.4488 46.7826 39.6069 46.8021 39.7515 46.8619C39.8961 46.9218 40.0217 47.0198 40.1149 47.1454L40.7514 48.0353L43.6544 45.956L43.0179 45.0661C42.9267 44.9388 42.8729 44.7885 42.8627 44.6322C42.8525 44.4759 42.8864 44.3199 42.9603 44.1819C43.0405 44.0244 43.1126 43.8629 43.1763 43.6981C43.2317 43.5507 43.3271 43.4217 43.4517 43.3256C43.5764 43.2294 43.7253 43.1699 43.8819 43.1537L44.9734 43.0443L44.6221 39.4933L43.5306 39.5998C43.375 39.6135 43.2187 39.5839 43.0789 39.5142C42.9391 39.4446 42.8213 39.3377 42.7386 39.2053C42.6896 39.1304 42.6406 39.0584 42.5888 38.9864C42.537 38.9144 42.4851 38.8424 42.4304 38.7761C42.3317 38.6537 42.2682 38.5067 42.2469 38.3509C42.2256 38.1951 42.2472 38.0364 42.3094 37.892L42.7616 36.8955ZM40.9184 40.1816C41.2552 40.6516 41.445 41.2109 41.4639 41.7888C41.4828 42.3666 41.3299 42.9371 41.0246 43.4281C40.7192 43.9191 40.2751 44.3085 39.7484 44.5471C39.2217 44.7856 38.6361 44.8627 38.0657 44.7684C37.4952 44.6741 36.9655 44.4128 36.5436 44.0175C36.1217 43.6221 35.8265 43.1106 35.6953 42.5474C35.5641 41.9843 35.6029 41.395 35.8067 40.8539C36.0105 40.3128 36.3702 39.8443 36.8403 39.5077C37.4705 39.0564 38.2542 38.8738 39.0189 39.0002C39.7837 39.1266 40.4669 39.5515 40.9184 40.1816Z"
    fill="#EBEBEB" />
  <path
    d="M189.613 84.0117L187.447 85.2616L187.83 85.924C187.887 86.0191 187.916 86.1286 187.912 86.2395C187.909 86.3504 187.873 86.4578 187.81 86.549C187.744 86.6527 187.68 86.7592 187.623 86.8716C187.575 86.9709 187.501 87.0546 187.407 87.1128C187.314 87.171 187.206 87.2012 187.096 87.1999H186.335V89.7026H187.101C187.211 89.7013 187.32 89.7315 187.413 89.7897C187.506 89.8479 187.581 89.9316 187.629 90.0309C187.686 90.1432 187.749 90.2498 187.816 90.3535C187.879 90.4447 187.914 90.5521 187.918 90.663C187.922 90.7739 187.893 90.8834 187.836 90.9784L187.453 91.6408L189.619 92.8908L190.005 92.2255C190.06 92.1311 190.141 92.0542 190.239 92.0033C190.336 91.9525 190.445 91.9297 190.555 91.9375H190.923C191.033 91.93 191.142 91.9529 191.239 92.0038C191.336 92.0546 191.417 92.1314 191.473 92.2255L191.859 92.8936L194.022 91.6437L193.639 90.9784C193.585 90.8829 193.558 90.774 193.562 90.6641C193.566 90.5542 193.601 90.4476 193.662 90.3564C193.728 90.2527 193.792 90.1432 193.849 90.0338C193.897 89.9344 193.971 89.8507 194.065 89.7925C194.158 89.7344 194.266 89.7041 194.376 89.7055H195.142V87.2028H194.371C194.261 87.2041 194.152 87.1739 194.059 87.1157C193.966 87.0575 193.891 86.9738 193.844 86.8744C193.786 86.765 193.723 86.6556 193.656 86.5519C193.595 86.4606 193.56 86.354 193.556 86.2441C193.552 86.1342 193.579 86.0253 193.633 85.9298L194.016 85.2645L191.853 84.0146L191.468 84.6712C191.412 84.7656 191.331 84.8425 191.233 84.8934C191.136 84.9443 191.027 84.9671 190.917 84.9592H190.733H190.549C190.439 84.9666 190.329 84.9436 190.232 84.8928C190.134 84.842 190.053 84.7654 189.996 84.6712L189.613 84.0117ZM190.733 86.4021C191.139 86.4016 191.536 86.5214 191.873 86.7465C192.211 86.9716 192.474 87.2918 192.63 87.6666C192.785 88.0414 192.826 88.454 192.747 88.852C192.668 89.2501 192.473 89.6157 192.186 89.9026C191.899 90.1896 191.533 90.385 191.135 90.464C190.737 90.543 190.325 90.5022 189.95 90.3466C189.575 90.191 189.255 89.9278 189.03 89.5901C188.805 89.2525 188.685 88.8556 188.685 88.4498C188.685 88.1807 188.738 87.9141 188.841 87.6653C188.943 87.4165 189.094 87.1905 189.284 87C189.474 86.8096 189.7 86.6585 189.949 86.5554C190.197 86.4523 190.464 86.3992 190.733 86.3992V86.4021Z"
    fill="#EBEBEB" />
  <path
    d="M49.3339 26.2541L47.3495 27.7747L47.8075 28.3824C47.8758 28.469 47.9178 28.5734 47.9285 28.6831C47.9392 28.7929 47.9182 28.9034 47.8679 29.0016C47.8128 29.1137 47.7647 29.2291 47.7239 29.3472C47.6885 29.4512 47.6246 29.5432 47.5397 29.613C47.4547 29.6827 47.3519 29.7273 47.243 29.7417L46.4827 29.8397L46.8052 32.3193L47.5655 32.2214C47.6762 32.206 47.789 32.2221 47.8909 32.268C47.9928 32.3139 48.0797 32.3876 48.1415 32.4806C48.2109 32.5808 48.2859 32.677 48.3662 32.7686C48.4404 32.8502 48.4896 32.9514 48.508 33.0601C48.5264 33.1689 48.5131 33.2806 48.4699 33.3821L48.1819 34.0905L50.4859 35.0496L50.7739 34.3411C50.8167 34.2395 50.8872 34.1519 50.9773 34.0883C51.0674 34.0246 51.1735 33.9875 51.2836 33.9811L51.4679 33.9609L51.6494 33.9321C51.756 33.9121 51.866 33.9216 51.9676 33.9597C52.0691 33.9977 52.1583 34.0629 52.2254 34.1481L52.6948 34.7616L54.6791 33.2409L54.2155 32.6333C54.1485 32.5455 54.1074 32.4407 54.0967 32.3308C54.086 32.2209 54.1062 32.1102 54.155 32.0112C54.2096 31.8998 54.2577 31.7854 54.299 31.6685C54.3345 31.5645 54.3983 31.4724 54.4833 31.4027C54.5683 31.333 54.671 31.2884 54.78 31.2739L55.5403 31.176L55.2177 28.6963L54.4574 28.7942C54.347 28.81 54.2344 28.7942 54.1325 28.7489C54.0306 28.7036 53.9436 28.6304 53.8814 28.5379C53.8094 28.4342 53.7345 28.3363 53.6539 28.2499C53.5868 28.1666 53.5434 28.0667 53.5282 27.9608C53.513 27.8549 53.5265 27.7468 53.5675 27.648L53.8555 26.9395L51.5515 25.9805L51.2635 26.6889C51.2201 26.7902 51.1494 26.8774 51.0595 26.941C50.9695 27.0045 50.8636 27.0419 50.7537 27.0489L50.5694 27.0662L50.3995 27.072C50.2929 27.0921 50.1828 27.0826 50.0813 27.0445C49.9797 27.0064 49.8906 26.9412 49.8235 26.856L49.3339 26.2541ZM50.7537 28.4803C51.1549 28.4287 51.5624 28.4971 51.9247 28.6769C52.2871 28.8566 52.5881 29.1396 52.7897 29.4902C52.9914 29.8409 53.0848 30.2433 53.058 30.6469C53.0312 31.0505 52.8854 31.4371 52.6392 31.758C52.3929 32.0789 52.0571 32.3196 51.6742 32.4499C51.2913 32.5801 50.8783 32.5941 50.4875 32.4899C50.0967 32.3858 49.7454 32.1682 49.4781 31.8646C49.2108 31.5611 49.0393 31.1852 48.9854 30.7843C48.9494 30.5168 48.9667 30.2448 49.0362 29.984C49.1057 29.7232 49.226 29.4787 49.3904 29.2646C49.5547 29.0504 49.7598 28.8709 49.9937 28.7363C50.2277 28.6017 50.486 28.5147 50.7537 28.4803Z"
    fill="#EBEBEB" />
  <path
    d="M34.5076 91.2326C34.6157 88.4485 34.5773 85.6606 34.3924 82.8806C33.9803 77.1399 33.1048 71.442 31.7744 65.8425C31.0429 62.6918 30.1444 59.5929 29.2055 56.4969C29.1767 56.4019 29.0269 56.4278 29.0528 56.5257C31.953 67.4409 34.3319 78.7017 34.1677 90.0489C34.1216 93.2169 33.753 96.3417 33.4535 99.4982C33.4535 99.5817 33.5831 99.6163 33.6032 99.5299C34.1994 96.8198 34.3952 93.9916 34.5076 91.2326Z"
    fill="#EBEBEB" />
  <path
    d="M29.0529 56.5166C29.0529 56.5166 24.6637 67.6622 25.6458 70.2715C26.6279 72.8808 28.6554 73.4395 28.6554 73.4395C28.6554 73.4395 25.9684 77.2756 27.8461 80.8728C29.7239 84.4699 33.8941 84.3 34.1821 88.378C34.1735 88.3982 34.4039 71.3457 29.0529 56.5166Z"
    fill="#EBEBEB" />
  <path
    d="M33.6952 81.3567C33.7023 81.3381 33.7023 81.3176 33.6952 81.2991C33.1191 73.6898 31.6913 66.1692 29.4385 58.8783C29.4385 58.8581 29.3953 58.8639 29.4011 58.8783C30.2708 62.1423 31.0388 65.4197 31.7051 68.7106C31.115 68.1516 30.3941 67.7496 29.6084 67.5413C29.6084 67.5413 29.5854 67.5586 29.6084 67.5644C30.4338 67.8668 31.176 68.3603 31.7742 69.0044C31.9009 69.6524 32.0276 70.2975 32.1457 70.9455C31.1636 69.8482 29.8043 69.3039 28.442 68.7855C28.439 68.7868 28.4363 68.789 28.4345 68.7919C28.4327 68.7947 28.4317 68.798 28.4317 68.8013C28.4317 68.8047 28.4327 68.808 28.4345 68.8108C28.4363 68.8136 28.439 68.8158 28.442 68.8172C29.8619 69.3932 31.2731 70.1362 32.235 71.3602C32.5691 73.2092 32.8628 75.0648 33.1163 76.9272C32.4072 76.1843 31.4978 75.6631 30.4984 75.4268C30.4667 75.4268 30.4494 75.4642 30.4811 75.4728C31.5077 75.7752 32.4243 76.3696 33.1192 77.1836H33.1364C33.2228 77.8364 33.3054 78.492 33.3841 79.1506C32.8356 78.6864 32.2162 78.313 31.5496 78.0447C31.5323 78.0447 31.5208 78.0648 31.5496 78.0706C32.2299 78.3653 32.8529 78.7777 33.3899 79.2888C33.3899 79.2888 33.4043 79.2888 33.4129 79.2888C33.4849 79.9138 33.5569 80.5388 33.6203 81.1637C32.6313 79.9682 31.3479 79.051 29.8964 78.5026C29.8903 78.5026 29.8845 78.505 29.8802 78.5093C29.8758 78.5137 29.8734 78.5195 29.8734 78.5256C29.8734 78.5318 29.8758 78.5376 29.8802 78.5419C29.8845 78.5463 29.8903 78.5487 29.8964 78.5487C31.3296 79.1804 32.5886 80.1498 33.5656 81.374C33.5763 81.3874 33.5908 81.3973 33.6072 81.4024C33.6237 81.4076 33.6412 81.4077 33.6577 81.4028C33.7528 82.3618 33.8392 83.3208 33.9083 84.2828C33.9083 84.2972 33.9313 84.2972 33.9313 84.2828C33.8564 83.317 33.7777 82.3416 33.6952 81.3567Z"
    fill="white" />
  <path
    d="M30.1671 66.4438C29.3722 65.9491 28.4642 65.6656 27.529 65.6201C27.5244 65.6201 27.5201 65.6219 27.5168 65.6252C27.5136 65.6284 27.5117 65.6328 27.5117 65.6374C27.5117 65.642 27.5136 65.6464 27.5168 65.6496C27.5201 65.6529 27.5244 65.6547 27.529 65.6547C28.4331 65.8261 29.3105 66.1167 30.1383 66.5187C30.1729 66.5273 30.1988 66.4668 30.1671 66.4438Z"
    fill="white" />
  <path
    d="M30.6999 78.2432C30.0889 77.8926 29.4162 77.6628 28.7184 77.5664C28.6954 77.5664 28.6925 77.5981 28.7184 77.6038C29.3998 77.7405 30.0589 77.9712 30.6768 78.2893C30.7027 78.3037 30.7258 78.2576 30.6999 78.2432Z"
    fill="white" />
  <path
    d="M46.0507 70.4645C44.1939 71.748 42.4887 73.2378 40.9675 74.9054C39.3988 76.6712 38.1888 78.7254 37.405 80.9534C35.7368 85.5955 34.8399 90.4792 34.7496 95.4111C34.6937 98.1422 34.9556 100.871 35.5301 103.541C35.5347 103.561 35.5467 103.578 35.5635 103.588C35.5802 103.599 35.6005 103.603 35.6201 103.6C35.6397 103.596 35.6572 103.585 35.6688 103.569C35.6805 103.552 35.6855 103.532 35.6827 103.512C34.9678 98.7997 34.995 94.0041 35.7634 89.2997C36.5179 84.6917 37.7016 79.6747 40.6334 75.9279C42.229 73.8859 44.219 72.2818 46.1861 70.6229C46.2898 70.5307 46.1573 70.3896 46.0507 70.4645Z"
    fill="#EBEBEB" />
  <path
    d="M35.3944 92.0877C36.4513 90.3782 37.6933 88.7904 39.0981 87.3529C41.2955 85.1555 43.1445 83.5945 43.4325 82.143C43.7205 80.6915 41.2321 79.6201 41.2321 79.6201C41.2321 79.6201 44.2705 80.1673 45.1029 78.8915C45.9352 77.6157 46.3355 70.2256 46.3355 70.2256C46.3355 70.2256 40.8059 74.1741 38.2283 79.7094C35.6507 85.2448 35.3944 92.0877 35.3944 92.0877Z"
    fill="#EBEBEB" />
  <path
    d="M44.3511 77.1573C43.987 77.1031 43.6179 77.0906 43.2509 77.1199C43.2077 77.1199 43.2106 77.1948 43.2509 77.1976C43.6138 77.1976 43.9795 77.1804 44.3424 77.1976C44.3466 77.1966 44.3503 77.1944 44.3533 77.1913C44.3563 77.1882 44.3583 77.1844 44.3592 77.1802C44.3601 77.176 44.3598 77.1716 44.3584 77.1676C44.3569 77.1636 44.3544 77.16 44.3511 77.1573Z"
    fill="white" />
  <path
    d="M40.38 84.3262C39.7961 84.3381 39.2189 84.4531 38.675 84.666C38.675 84.666 38.675 84.6948 38.675 84.6919C39.251 84.5566 39.8069 84.5019 40.3771 84.4039C40.3846 84.4007 40.3909 84.3954 40.3955 84.3887C40.4001 84.382 40.4027 84.3741 40.403 84.366C40.4033 84.3578 40.4013 84.3498 40.3972 84.3428C40.3932 84.3357 40.3872 84.33 40.38 84.3262Z"
    fill="white" />
  <path
    d="M39.1874 81.8488C38.9449 81.8468 38.7029 81.868 38.4645 81.9121C38.4601 81.9138 38.4563 81.9167 38.4536 81.9206C38.4509 81.9244 38.4495 81.929 38.4495 81.9337C38.4495 81.9384 38.4509 81.943 38.4536 81.9469C38.4563 81.9507 38.4601 81.9537 38.4645 81.9553C38.7059 81.9693 38.9481 81.9587 39.1874 81.9236C39.1973 81.9236 39.2068 81.9197 39.2138 81.9127C39.2209 81.9056 39.2248 81.8961 39.2248 81.8862C39.2248 81.8763 39.2209 81.8667 39.2138 81.8597C39.2068 81.8527 39.1973 81.8488 39.1874 81.8488Z"
    fill="white" />
  <path
    d="M19.1827 78.3041C20.9824 78.9142 22.7071 79.7268 24.3235 80.7261C26.0006 81.7919 27.455 83.1729 28.606 84.7927C31.0278 88.1638 32.882 91.9083 34.0953 95.8778C34.772 98.0757 35.1895 100.345 35.3395 102.64C35.3363 102.655 35.3282 102.668 35.3164 102.678C35.3046 102.687 35.2899 102.693 35.2747 102.693C35.2595 102.693 35.2448 102.687 35.233 102.678C35.2212 102.668 35.213 102.655 35.2099 102.64C34.7015 98.6611 33.5723 94.7865 31.8633 91.1575C30.1843 87.6007 28.0675 83.8164 24.8304 81.4605C23.0678 80.1789 21.0864 79.338 19.1107 78.4509C19.007 78.4164 19.079 78.2695 19.1827 78.3041Z"
    fill="#EBEBEB" />
  <path
    d="M32.8054 93.34C31.5542 92.2016 30.1818 91.2039 28.7129 90.365C26.4262 89.0949 24.5686 88.2597 24.0012 87.1509C23.4339 86.0421 25.1993 84.6021 25.1993 84.6021C25.1993 84.6021 22.8665 85.7541 21.8988 84.9045C20.9312 84.0549 18.8979 78.1797 18.8979 78.1797C18.8979 78.1797 24.2864 80.0949 27.6473 83.98C31.0083 87.8651 32.8054 93.34 32.8054 93.34Z"
    fill="#EBEBEB" />
  <path
    d="M28.3326 87.9319C27.8028 87.8949 27.2709 87.9605 26.7659 88.1248C26.7659 88.1248 26.7659 88.1508 26.7659 88.1479C27.2811 88.0595 27.8016 88.0057 28.3239 87.9866C28.3614 87.9866 28.37 87.9348 28.3326 87.9319Z"
    fill="white" />
  <path
    d="M23.6326 81.7685C23.391 81.7488 23.1477 81.7624 22.9098 81.8089C22.8838 81.8089 22.8925 81.8549 22.9098 81.8521C23.1488 81.8261 23.3821 81.8348 23.6182 81.829C23.6256 81.8293 23.6328 81.8271 23.6386 81.8226C23.6445 81.8182 23.6486 81.8118 23.6503 81.8047C23.652 81.7976 23.6512 81.7901 23.648 81.7835C23.6447 81.7769 23.6393 81.7716 23.6326 81.7685Z"
    fill="white" />
  <path
    d="M39.7549 110.067H27.5926L29.3264 97.3637L29.7699 94.1064H37.5776L38.0211 97.3637L39.7549 110.067Z"
    fill="#DBDBDB" />
  <path d="M38.0211 97.3637H29.3264L29.7699 94.1064H37.5776L38.0211 97.3637Z" fill="#C7C7C7" />
  <path d="M38.6923 92.9775H28.6526V95.7366H38.6923V92.9775Z" fill="#DBDBDB" />
  <path
    d="M19.8604 110.068L41.7512 109.999L63.6421 109.973L107.424 109.924L151.206 109.973L173.097 109.999L194.987 110.068L173.097 110.14L151.206 110.163L107.424 110.212L63.6421 110.163L41.7512 110.137L19.8604 110.068Z"
    fill="#263238" />
  <path
    d="M108 131.532C153.608 131.532 190.581 127.481 190.581 122.484C190.581 117.486 153.608 113.435 108 113.435C62.3917 113.435 25.4189 117.486 25.4189 122.484C25.4189 127.481 62.3917 131.532 108 131.532Z"
    fill="#EBEBEB" />
  <path d="M165.981 124.43H78.2328L90.9192 52.4736H178.667L165.981 124.43Z" fill="#C4C4C4" />
  <path d="M120.952 45.0205H92.2351L90.919 52.4739H121.651L120.952 45.0205Z" fill="#C4C4C4" />
  <g opacity="0.1">
    <path d="M165.981 124.43H78.233L90.9194 52.4736H178.667L165.981 124.43Z" fill="black" />
    <path d="M120.952 45.0205H92.2353L90.9191 52.4739H121.652L120.952 45.0205Z" fill="black" />
  </g>
  <path
    d="M89.1364 48.0622C88.9444 47.2381 88.9444 46.3808 89.1364 45.5566C89.3284 46.3808 89.3284 47.2381 89.1364 48.0622Z"
    fill="#263238" />
  <path
    d="M86.5848 48.7996C86.2916 48.4955 86.0389 48.1547 85.8331 47.7858C85.6173 47.4245 85.448 47.0375 85.3291 46.6338C85.6232 46.9361 85.876 47.276 86.0808 47.6447C86.2962 48.0072 86.4655 48.3951 86.5848 48.7996Z"
    fill="#263238" />
  <path
    d="M84.7415 50.7147C83.9323 50.4687 83.1903 50.04 82.5729 49.4619C82.9766 49.5793 83.3638 49.7477 83.7249 49.963C84.0938 50.1701 84.4354 50.4227 84.7415 50.7147Z"
    fill="#263238" />
  <path
    d="M84.0965 53.2944C83.2723 53.4864 82.415 53.4864 81.5909 53.2944C82.415 53.1024 83.2723 53.1024 84.0965 53.2944Z"
    fill="#263238" />
  <path
    d="M84.8453 55.8467C84.5399 56.1384 84.1994 56.3909 83.8315 56.5984C83.4704 56.8137 83.0833 56.9821 82.6795 57.0995C82.9836 56.8062 83.3243 56.5536 83.6933 56.3478C84.0539 56.1314 84.4411 55.9629 84.8453 55.8467Z"
    fill="#263238" />
  <path
    d="M86.7577 57.6865C86.5125 58.497 86.0838 59.2401 85.5049 59.858C85.6222 59.4538 85.7916 59.0665 86.0089 58.706C86.2142 58.3358 86.4658 57.9932 86.7577 57.6865Z"
    fill="#263238" />
  <path
    d="M89.3382 58.3232C89.4386 58.7331 89.487 59.1541 89.4822 59.576C89.4884 59.9981 89.44 60.4192 89.3382 60.8288C89.235 60.4195 89.1865 59.9982 89.1942 59.576C89.1894 59.1541 89.2378 58.7331 89.3382 58.3232Z"
    fill="#263238" />
  <path
    d="M91.8899 57.6005C92.1831 57.9046 92.4358 58.2453 92.6415 58.6142C92.8579 58.9748 93.0264 59.3621 93.1427 59.7662C92.5637 59.1483 92.135 58.4052 91.8899 57.5947V57.6005Z"
    fill="#263238" />
  <path
    d="M93.7297 55.6709C94.1339 55.7872 94.5211 55.9556 94.8817 56.172C95.2506 56.3778 95.5914 56.6305 95.8955 56.9237C95.4913 56.8074 95.1041 56.639 94.7435 56.4226C94.3745 56.2168 94.0338 55.9641 93.7297 55.6709Z"
    fill="#263238" />
  <path
    d="M94.3666 53.0903C95.1918 52.8983 96.05 52.8983 96.8751 53.0903C96.05 53.2822 95.1918 53.2822 94.3666 53.0903Z"
    fill="#263238" />
  <path
    d="M93.6294 50.5389C93.9343 50.2474 94.2749 49.9958 94.6432 49.7901C95.0031 49.5717 95.3905 49.4022 95.7952 49.2861C95.1772 49.8651 94.4342 50.2938 93.6237 50.5389H93.6294Z"
    fill="#263238" />
  <path
    d="M91.7141 48.698C91.8326 48.2947 92.001 47.9077 92.2152 47.546C92.421 47.1771 92.6736 46.8363 92.9669 46.5322C92.8506 46.9364 92.6822 47.3236 92.4658 47.6842C92.26 48.0532 92.0073 48.3939 91.7141 48.698Z"
    fill="#263238" />
  <path d="M165.851 124.431H77.916L65.4283 55.0859H153.366L165.851 124.431Z" fill="#C4C4C4" />
  <path
    d="M95.9014 97.4764C97.9199 97.4764 99.5561 95.8402 99.5561 93.8217C99.5561 91.8033 97.9199 90.167 95.9014 90.167C93.883 90.167 92.2467 91.8033 92.2467 93.8217C92.2467 95.8402 93.883 97.4764 95.9014 97.4764Z"
    fill="#263238" />
  <path
    d="M124.794 97.4764C126.812 97.4764 128.449 95.8402 128.449 93.8217C128.449 91.8033 126.812 90.167 124.794 90.167C122.776 90.167 121.139 91.8033 121.139 93.8217C121.139 95.8402 122.776 97.4764 124.794 97.4764Z"
    fill="#263238" />
  <path
    d="M115.598 98.0612L115.396 97.6782C115.379 97.6436 113.49 94.1531 109.691 94.1531C106.235 94.1531 105.371 97.4391 105.348 97.5803L105.244 97.9979L104.406 97.7963L104.507 97.3758C104.507 97.3355 105.538 93.2891 109.691 93.2891C114.011 93.2891 116.076 97.1137 116.162 97.2779L116.364 97.658L115.598 98.0612Z"
    fill="#263238" />
  <path
    d="M160.045 93.5416L159.985 93.2536C160.172 93.2133 160.356 93.1701 160.54 93.1211L160.612 93.4091C160.417 93.4581 160.235 93.5013 160.045 93.5416Z"
    fill="#263238" />
  <path
    d="M161.727 93.0786L161.635 92.8079C161.995 92.6841 162.355 92.5487 162.704 92.4018L162.816 92.6668C162.462 92.8165 162.096 92.9548 161.727 93.0786ZM163.873 92.1599L163.743 91.9065C164.08 91.7308 164.417 91.5407 164.737 91.3305L164.887 91.5753C164.558 91.8028 164.216 91.9957 163.873 92.1599ZM165.854 90.9417L165.684 90.7084C165.995 90.4809 166.295 90.2418 166.577 89.997L166.767 90.213C166.465 90.4751 166.177 90.7199 165.851 90.9532L165.854 90.9417ZM167.611 89.4095L167.401 89.2108C167.666 88.9228 167.916 88.6348 168.147 88.3468L168.374 88.5225C168.135 88.8393 167.879 89.1359 167.617 89.421L167.611 89.4095ZM169.037 87.5663L168.792 87.4137C168.991 87.0919 169.168 86.7571 169.322 86.4114L169.587 86.5295C169.424 86.8899 169.239 87.24 169.034 87.5778L169.037 87.5663ZM169.99 85.4293L169.702 85.3487C169.807 84.9874 169.885 84.6186 169.935 84.2457L170.223 84.2831C170.176 84.6747 170.097 85.0619 169.987 85.4409L169.99 85.4293ZM170.31 83.1253H170.022V83.0418C170.022 82.6933 170.001 82.3391 169.967 81.9906L170.255 81.9618C170.293 82.3206 170.312 82.6811 170.312 83.0418L170.31 83.1253ZM169.791 80.8703C169.714 80.499 169.618 80.1318 169.503 79.7701L169.791 79.6837C169.909 80.0581 170.01 80.4383 170.079 80.8098L169.791 80.8703ZM169.109 78.7017C168.97 78.3618 168.821 78.0133 168.636 77.662L168.896 77.5324C169.071 77.8895 169.232 78.2466 169.374 78.5922L169.109 78.7017ZM168.101 76.6482C167.922 76.3343 167.726 76.0031 167.525 75.6633L167.769 75.5106C167.98 75.8533 168.178 76.1874 168.345 76.5071L168.101 76.6482ZM166.897 74.6927C166.687 74.3759 166.473 74.0562 166.255 73.7365L166.494 73.5753C166.712 73.8949 166.926 74.2146 167.136 74.5372L166.897 74.6927ZM165.601 72.7861C165.385 72.4693 165.166 72.1497 164.953 71.8329L165.192 71.6716C165.405 71.9884 165.621 72.3081 165.837 72.622L165.601 72.7861ZM164.313 70.8681C164.103 70.5455 163.899 70.2172 163.697 69.8889L163.942 69.7391C164.144 70.0674 164.348 70.39 164.555 70.7125L164.313 70.8681ZM163.112 68.8895C162.917 68.541 162.735 68.1954 162.571 67.8642L162.83 67.7346C162.992 68.0629 163.173 68.4028 163.363 68.7484L163.112 68.8895ZM162.09 66.8159C161.937 66.4559 161.802 66.0901 161.675 65.733L161.963 65.6409C162.084 65.9893 162.22 66.3493 162.369 66.7036L162.09 66.8159ZM161.341 64.6185C161.246 64.2441 161.163 63.861 161.099 63.4665L161.387 63.4204C161.451 63.789 161.528 64.1634 161.624 64.5321L161.341 64.6185ZM160.955 62.3145C160.927 61.9602 160.912 61.6031 160.912 61.246V61.1509H161.2V61.2431C161.2 61.5916 161.2 61.9429 161.243 62.2885L160.955 62.3145ZM161.243 60.0105L160.955 59.9817C160.955 59.9039 160.97 59.8233 160.978 59.7397C161.013 59.4316 161.056 59.1234 161.108 58.8297L161.396 58.8786C161.347 59.1666 161.304 59.469 161.269 59.7714C161.281 59.8607 161.281 59.9385 161.258 60.0191L161.243 60.0105ZM161.644 57.7698L161.356 57.6921C161.462 57.3119 161.586 56.9404 161.724 56.5861L161.992 56.6898C161.861 57.0464 161.75 57.4098 161.658 57.7785L161.644 57.7698ZM175.995 56.0908C175.833 56.0908 175.666 56.0677 175.502 56.0447C175.278 56.013 175.053 55.9756 174.831 55.9324L174.889 55.6444C175.102 55.6847 175.324 55.7221 175.543 55.7538C175.698 55.774 175.857 55.7884 176.009 55.797L175.995 56.0908ZM177.178 56.0015L177.118 55.7135C177.479 55.6389 177.826 55.5046 178.143 55.3161L178.293 55.5609C177.954 55.7708 177.582 55.9226 177.193 56.0101L177.178 56.0015ZM162.473 55.6588L162.217 55.5234C162.4 55.1799 162.603 54.8472 162.824 54.5269L163.061 54.6911C162.85 55.0047 162.659 55.3308 162.488 55.6674L162.473 55.6588ZM173.705 55.6415C173.333 55.5236 172.968 55.3861 172.611 55.2297L172.729 54.9647C173.075 55.1185 173.43 55.2522 173.792 55.365L173.705 55.6415ZM179.177 54.7429L178.938 54.5817C179.143 54.2842 179.265 53.937 179.289 53.5765L179.577 53.5967C179.553 54.0099 179.418 54.4088 179.186 54.7516L179.177 54.7429ZM171.574 54.6997C171.237 54.5038 170.911 54.2894 170.598 54.0575L170.768 53.8271C171.072 54.052 171.39 54.2597 171.718 54.4492L171.574 54.6997ZM163.769 53.8012L163.556 53.6082C163.817 53.3182 164.095 53.0441 164.388 52.7874L164.578 53.0034C164.296 53.2562 164.029 53.5255 163.778 53.8098L163.769 53.8012ZM169.699 53.3145C169.412 53.0502 169.14 52.7704 168.884 52.4764L169.1 52.2863C169.349 52.5719 169.614 52.844 169.892 53.1013L169.699 53.3145ZM179.073 52.534C178.908 52.2049 178.68 51.9113 178.402 51.67L178.592 51.454C178.898 51.7187 179.15 52.0405 179.333 52.4015L179.073 52.534ZM165.474 52.3065L165.31 52.0703C165.632 51.8503 165.966 51.6475 166.309 51.4626L166.445 51.7161C166.114 51.8989 165.793 52.0988 165.483 52.3151L165.474 52.3065ZM168.164 51.5577C168.055 51.4021 167.948 51.2437 167.847 51.0796L167.473 51.2265L167.363 50.9615L167.695 50.829C167.643 50.7426 167.591 50.6562 167.542 50.5698L167.792 50.4287C167.85 50.5295 167.908 50.6303 167.968 50.7167C168.129 50.6591 168.294 50.6044 168.461 50.5525L168.544 50.8405C168.403 50.8837 168.256 50.9298 168.124 50.9788C168.213 51.1199 168.305 51.2668 168.412 51.3906L168.164 51.5577ZM177.475 51.0623C177.196 50.9234 176.908 50.806 176.611 50.7109L176.421 50.6505L176.504 50.3625L176.7 50.4258C177.009 50.5242 177.309 50.6465 177.599 50.7916L177.475 51.0623ZM169.647 50.5468L169.587 50.2588C169.958 50.1753 170.344 50.1061 170.739 50.0514L170.782 50.3394C170.402 50.3999 170.025 50.4719 169.656 50.5554L169.647 50.5468ZM175.321 50.3913C174.961 50.3279 174.581 50.2789 174.192 50.2444L174.215 49.9564C174.615 49.9909 175.004 50.0399 175.367 50.1061L175.321 50.3913ZM171.908 50.2242L171.888 49.9362C172.231 49.9161 172.573 49.9045 172.913 49.9045H173.054V50.1925H172.916C172.591 50.2012 172.251 50.2098 171.917 50.2329L171.908 50.2242ZM167.041 49.5359C166.885 49.1845 166.753 48.8188 166.623 48.4473L166.911 48.358C167.032 48.7209 167.168 49.078 167.317 49.4207L167.041 49.5359ZM166.312 47.3241C166.226 46.9525 166.154 46.5666 166.099 46.1721L166.387 46.1317C166.442 46.5119 166.511 46.8892 166.594 47.2549L166.312 47.3241ZM165.99 45.0201C165.975 44.7609 165.967 44.4959 165.967 44.2309C165.967 44.1071 165.967 43.9804 165.967 43.8565H166.255C166.255 43.9804 166.255 44.1013 166.255 44.2252C166.255 44.4844 166.255 44.7465 166.275 44.997L165.99 45.0201ZM166.332 42.7161L166.044 42.6873C166.085 42.3071 166.139 41.9183 166.206 41.5353L166.494 41.5842C166.416 41.9673 166.361 42.3359 166.324 42.7218L166.332 42.7161ZM166.727 40.4668L166.439 40.3977C166.531 40.0261 166.638 39.6517 166.756 39.2773L167.044 39.3666C166.914 39.7439 166.808 40.1097 166.718 40.4725L166.727 40.4668ZM167.418 38.2866L167.15 38.1829C167.291 37.8229 167.438 37.4629 167.614 37.1145L167.873 37.2412C167.7 37.5868 167.548 37.9381 167.409 38.3039L167.418 38.2866ZM168.409 36.2332L168.158 36.0863C168.354 35.7551 168.564 35.4239 168.783 35.1071L169.019 35.2713C168.795 35.5881 168.59 35.9106 168.4 36.2389L168.409 36.2332ZM169.708 34.3583L169.483 34.1769C169.725 33.8889 169.984 33.5836 170.252 33.3129L170.459 33.5116C170.189 33.7823 169.935 34.0703 169.699 34.3641L169.708 34.3583ZM171.274 32.6994L171.081 32.4863C171.369 32.23 171.657 31.9765 171.966 31.7317L172.144 31.9593C171.836 32.2041 171.542 32.4546 171.266 32.7052L171.274 32.6994ZM173.063 31.2767L172.899 31.0377C173.213 30.8217 173.541 30.6085 173.875 30.4069L174.022 30.6517C173.688 30.8562 173.377 31.0665 173.054 31.2825L173.063 31.2767ZM175.018 30.0873L174.883 29.8338C175.223 29.6524 175.574 29.4796 175.926 29.3183L176.047 29.5804C175.681 29.7445 175.344 29.9173 175.01 30.093L175.018 30.0873ZM177.101 29.1311L176.994 28.8604C177.357 28.7193 177.723 28.5724 178.086 28.4658L178.178 28.7538C177.812 28.8633 177.449 28.9957 177.092 29.1369L177.101 29.1311Z"
    fill="#263238" />
  <path
    d="M179.321 28.4019L179.249 28.1139C179.606 28.0218 179.825 27.9814 179.825 27.9814L179.877 28.2694C179.877 28.2694 179.67 28.3126 179.321 28.4019Z"
    fill="#263238" />
  <path
    d="M184.413 26.5415C183.678 24.2663 178.759 25.0842 179.718 28.0592C180.677 31.0343 185.147 28.8196 184.413 26.5415Z"
    fill="#263238" />
  <path
    d="M177.043 25.6316C177.081 24.6323 178.469 23.8633 180.433 24.2176C182.397 24.5718 184.243 25.8966 184.243 25.8966C184.243 25.8966 182.305 27.0716 180.321 27.2876C178.336 27.5036 177.006 26.6281 177.043 25.6316Z"
    fill="#EBEBEB" />
  <path
    d="M184.243 25.8907C183.224 25.8907 182.207 25.8619 181.19 25.8302C180.174 25.7985 179.154 25.7467 178.138 25.666C179.157 25.666 180.177 25.6919 181.193 25.7236C182.21 25.7553 183.229 25.8071 184.243 25.8907Z"
    fill="#263238" />
  <path
    d="M179.016 24.7412C179.595 25.0181 180.14 25.3591 180.643 25.7579C180.353 25.6219 180.073 25.468 179.802 25.297C179.529 25.1272 179.267 24.9416 179.016 24.7412Z"
    fill="#263238" />
  <path
    d="M181.686 25.7959C181.165 26.2181 180.6 26.5831 180.001 26.8845C180.524 26.4618 181.092 26.0968 181.694 25.7959H181.686Z"
    fill="#263238" />
  <path
    d="M181.982 25.2344C182.273 25.3739 182.527 25.579 182.725 25.8334C182.58 25.7648 182.443 25.6788 182.319 25.5771C182.194 25.4761 182.081 25.3611 181.982 25.2344Z"
    fill="#263238" />
  <path
    d="M178.915 31.5496C179.528 32.3387 181.103 32.1486 182.489 30.7144C183.874 29.2802 184.608 27.123 184.608 27.123C184.608 27.123 182.339 27.2958 180.608 28.275C178.877 29.2542 178.298 30.7576 178.915 31.5496Z"
    fill="#EBEBEB" />
  <path
    d="M184.609 27.123C183.779 27.699 182.973 28.3384 182.164 28.9576C181.354 29.5768 180.562 30.2162 179.788 30.8757C180.617 30.2997 181.423 29.6632 182.23 29.044C183.036 28.4248 183.822 27.7854 184.609 27.123Z"
    fill="#263238" />
  <path
    d="M181.031 31.1032C181.185 30.8234 181.323 30.5349 181.443 30.2392C181.566 29.9426 181.67 29.6386 181.754 29.3291C181.6 29.6086 181.462 29.8971 181.343 30.1931C181.221 30.4901 181.117 30.794 181.031 31.1032Z"
    fill="#263238" />
  <path
    d="M182.593 28.6962C181.919 28.6602 181.243 28.6959 180.577 28.8028C180.913 28.8229 181.249 28.8229 181.585 28.8028C181.923 28.7863 182.259 28.7507 182.593 28.6962Z"
    fill="#263238" />
  <path
    d="M183.148 28.9811C183.225 28.8389 183.285 28.6881 183.327 28.5318C183.37 28.3767 183.395 28.2173 183.402 28.0566C183.249 28.3417 183.162 28.6578 183.148 28.9811Z"
    fill="#263238" />
  <path
    d="M184.413 26.5412C184.25 26.594 184.076 26.5974 183.911 26.5509C183.746 26.5044 183.599 26.4101 183.488 26.2799C183.378 26.1497 183.308 25.9896 183.288 25.8198C183.268 25.6499 183.299 25.478 183.377 25.3258C183.455 25.1735 183.576 25.0479 183.726 24.9646C183.875 24.8814 184.046 24.8444 184.216 24.8583C184.387 24.8722 184.549 24.9364 184.683 25.0427C184.817 25.149 184.916 25.2926 184.969 25.4555C185.039 25.6732 185.019 25.9097 184.915 26.1132C184.811 26.3167 184.63 26.4706 184.413 26.5412Z"
    fill="#455A64" />
  <path
    d="M184.943 28.186C184.78 28.2386 184.606 28.2419 184.441 28.1953C184.277 28.1487 184.13 28.0545 184.019 27.9245C183.909 27.7944 183.839 27.6344 183.819 27.4648C183.799 27.2951 183.83 27.1233 183.907 26.9711C183.985 26.8189 184.106 26.6932 184.255 26.6098C184.404 26.5265 184.575 26.4892 184.745 26.5027C184.916 26.5162 185.078 26.5799 185.212 26.6858C185.346 26.7916 185.446 26.9349 185.499 27.0974C185.534 27.2054 185.547 27.3192 185.538 27.4324C185.529 27.5455 185.498 27.6558 185.446 27.7569C185.395 27.858 185.324 27.9479 185.237 28.0216C185.151 28.0952 185.051 28.1511 184.943 28.186Z"
    fill="#455A64" />
  <path
    d="M90.5215 27.4525C90.3834 28.7753 89.8806 30.0338 89.069 31.0874C88.2574 32.1411 87.1689 32.9485 85.9251 33.4195C84.6813 33.8906 83.3311 34.0068 82.0251 33.7551C80.7191 33.5034 79.5088 32.8938 78.5291 31.9942L74.9378 32.5213L76.7349 29.4166C76.3239 28.4064 76.1486 27.3159 76.2222 26.2278C76.2958 25.1397 76.6164 24.0826 77.1597 23.137C77.7029 22.1913 78.4546 21.3819 79.3575 20.7703C80.2604 20.1586 81.2908 19.7607 82.3705 19.6069C83.4502 19.4531 84.5507 19.5473 85.5885 19.8825C86.6264 20.2177 87.5741 20.785 88.3599 21.5413C89.1456 22.2976 89.7487 23.223 90.1232 24.2473C90.4978 25.2715 90.634 26.3677 90.5215 27.4525Z"
    fill="white" />
  <path
    d="M90.5217 27.4521C90.3866 28.7742 89.8882 30.0332 89.0817 31.0895C88.6876 31.6237 88.2125 32.0931 87.6734 32.4805C87.1461 32.8825 86.5642 33.2074 85.9454 33.4453C85.3261 33.6892 84.6755 33.8443 84.0129 33.9061C83.6816 33.9359 83.3486 33.9426 83.0164 33.9263C82.683 33.9177 82.3508 33.8831 82.0228 33.8226C80.6992 33.5791 79.4696 32.9718 78.4718 32.0687L78.5553 32.0946L74.9697 32.6447L74.7076 32.685L74.8401 32.4546L76.6257 29.3442V29.4681C76.2043 28.4392 76.0252 27.3273 76.1021 26.2181C76.179 25.109 76.5099 24.0324 77.0692 23.0716C77.6278 22.1137 78.3958 21.2946 79.3156 20.6754C80.234 20.0644 81.2787 19.6693 82.3716 19.5197C83.4644 19.3701 84.5769 19.4698 85.6257 19.8114C86.6634 20.1644 87.609 20.745 88.3934 21.5106C89.176 22.2743 89.7744 23.2063 90.1432 24.2357C90.512 25.2652 90.6414 26.3651 90.5217 27.4521ZM90.5217 27.4521C90.6381 26.3705 90.5043 25.2766 90.1308 24.2549C89.7573 23.2332 89.1539 22.311 88.3674 21.5595C87.5808 20.8081 86.6321 20.2474 85.5945 19.9208C84.5568 19.5942 83.458 19.5105 82.3828 19.6761C81.3184 19.8336 80.3045 20.2337 79.4193 20.8453C78.5417 21.4618 77.8086 22.2617 77.2708 23.1897C76.7413 24.1196 76.4292 25.1574 76.3579 26.2252C76.2877 27.3002 76.461 28.3771 76.8647 29.3759L76.8907 29.4393L76.8561 29.4997L75.0474 32.5986L74.9207 32.4085L78.515 31.9045H78.5639L78.5985 31.9362C79.5593 32.8305 80.7499 33.4397 82.0372 33.6959C82.358 33.7613 82.6835 33.8007 83.0107 33.814C83.3376 33.837 83.6658 33.837 83.9927 33.814C84.6484 33.7611 85.2938 33.6187 85.9108 33.3906C86.5292 33.1655 87.1114 32.8511 87.6388 32.4575C88.1757 32.0732 88.6514 31.6101 89.05 31.0837C89.8669 30.0325 90.3763 28.7754 90.5217 27.4521Z"
    fill="#263238" />
  <path
    d="M79.8743 30.0527C79.8687 29.9574 79.8829 29.8619 79.9158 29.7722C79.9487 29.6826 79.9997 29.6006 80.0656 29.5315C80.1315 29.4624 80.2109 29.4075 80.2988 29.3703C80.3868 29.3332 80.4815 29.3145 80.577 29.3154C80.7725 29.3154 80.9601 29.3931 81.0983 29.5314C81.2366 29.6697 81.3143 29.8572 81.3143 30.0527C81.3143 30.2483 81.2366 30.4358 81.0983 30.5741C80.9601 30.7123 80.7725 30.79 80.577 30.79C80.4815 30.7909 80.3868 30.7723 80.2988 30.7351C80.2109 30.6979 80.1315 30.6431 80.0656 30.5739C79.9997 30.5048 79.9487 30.4229 79.9158 30.3332C79.8829 30.2435 79.8687 30.1481 79.8743 30.0527ZM80.1623 28.3506L79.9952 22.6367H81.1472L80.9802 28.3506H80.1623Z"
    fill="#777777" />
  <path
    d="M82.613 30.0527C82.6074 29.9576 82.6215 29.8624 82.6542 29.7729C82.6869 29.6835 82.7377 29.6017 82.8033 29.5326C82.8688 29.4635 82.9479 29.4086 83.0355 29.3712C83.1232 29.3339 83.2175 29.3149 83.3128 29.3154C83.5083 29.3154 83.6959 29.3931 83.8341 29.5314C83.9724 29.6697 84.0501 29.8572 84.0501 30.0527C84.0501 30.2483 83.9724 30.4358 83.8341 30.5741C83.6959 30.7123 83.5083 30.79 83.3128 30.79C83.2175 30.7906 83.1232 30.7716 83.0355 30.7342C82.9479 30.6969 82.8688 30.642 82.8033 30.5729C82.7377 30.5038 82.6869 30.422 82.6542 30.3325C82.6215 30.243 82.6074 30.1478 82.613 30.0527ZM82.901 28.3506L82.7425 22.6367H83.8945L83.7275 28.3506H82.901Z"
    fill="#777777" />
  <path
    d="M85.3493 30.0527C85.3438 29.9574 85.3579 29.8619 85.3908 29.7722C85.4237 29.6826 85.4747 29.6006 85.5406 29.5315C85.6065 29.4624 85.6859 29.4075 85.7738 29.3703C85.8618 29.3332 85.9565 29.3145 86.052 29.3154C86.2475 29.3154 86.4351 29.3931 86.5733 29.5314C86.7116 29.6697 86.7893 29.8572 86.7893 30.0527C86.7893 30.2483 86.7116 30.4358 86.5733 30.5741C86.4351 30.7123 86.2475 30.79 86.052 30.79C85.9565 30.7909 85.8618 30.7723 85.7738 30.7351C85.6859 30.6979 85.6065 30.6431 85.5406 30.5739C85.4747 30.5048 85.4237 30.4229 85.3908 30.3332C85.3579 30.2435 85.3438 30.1481 85.3493 30.0527ZM85.6373 28.3506L85.4702 22.6367H86.6222L86.4581 28.3506H85.6373Z"
    fill="#777777" />
</svg>