<svg width="24" height="24" viewBox="0 0 24 24" fill="none" xmlns="http://www.w3.org/2000/svg">
<path d="M20.3438 20.5002H21.172L20.7862 19.7673L12.4422 3.91433L11.9998 3.0737L11.5573 3.91433L3.21332 19.7673L2.82757 20.5002H3.65577H20.3438ZM11.9998 13.5002C11.8672 13.5002 11.74 13.4475 11.6462 13.3538C11.5524 13.26 11.4998 13.1328 11.4998 13.0002V10.0002C11.4998 9.8676 11.5524 9.74043 11.6462 9.64666C11.74 9.55289 11.8672 9.50021 11.9998 9.50021C12.1324 9.50021 12.2596 9.55289 12.3533 9.64666C12.4471 9.74043 12.4998 9.8676 12.4998 10.0002V13.0002C12.4998 13.1328 12.4471 13.26 12.3533 13.3538C12.2596 13.4475 12.1324 13.5002 11.9998 13.5002ZM10.9998 16.5002C10.9998 16.235 11.1051 15.9806 11.2927 15.7931C11.4802 15.6056 11.7346 15.5002 11.9998 15.5002C12.265 15.5002 12.5193 15.6056 12.7069 15.7931C12.8944 15.9806 12.9998 16.235 12.9998 16.5002C12.9998 16.7654 12.8944 17.0198 12.7069 17.2073C12.5193 17.3949 12.265 17.5002 11.9998 17.5002C11.7346 17.5002 11.4802 17.3949 11.2927 17.2073C11.1051 17.0198 10.9998 16.7654 10.9998 16.5002ZM10.6722 3.44908C11.2348 2.38025 12.7648 2.38025 13.3273 3.44908L21.6703 19.3011C22.1963 20.3005 21.4731 21.5002 20.3428 21.5002H3.65677C2.52831 21.5002 1.80432 20.3004 2.32924 19.3021C2.32926 19.302 2.32928 19.302 2.3293 19.3019L10.6722 3.44908Z" stroke="#505A52"/>
</svg>
