<svg width="36" height="34" viewBox="0 0 36 34" fill="none" xmlns="http://www.w3.org/2000/svg">
<path d="M2.27483 30.5673L2.76575 29.6346L16.6724 3.21289L17.1655 2.27602C16.8459 2.43762 16.5667 2.69842 16.3772 3.05844L2.27483 30.5673ZM2.27483 30.5673C2.22799 30.2122 2.28525 29.8357 2.47218 29.4801C2.47225 29.48 2.47231 29.4799 2.47237 29.4797L16.3772 3.05848L2.27483 30.5673ZM31.9064 31.8332H32.9635C32.6703 32.0412 32.3088 32.1665 31.9048 32.1665H4.09478C3.6916 32.1665 3.33062 32.0411 3.03767 31.8332H4.09311H31.9064ZM33.7258 30.5692L33.2338 29.6346L19.3271 3.21289L18.834 2.27602C19.1536 2.43763 19.4329 2.69845 19.6224 3.05848L33.5274 29.4784C33.7153 29.8355 33.7729 30.2133 33.7258 30.5692ZM17.9998 18.8332C17.9556 18.8332 17.9132 18.8156 17.8819 18.7844L16.8637 19.8026L17.8819 18.7844C17.8507 18.7531 17.8331 18.7107 17.8331 18.6665V13.6665C17.8331 13.6223 17.8507 13.5799 17.8819 13.5487C17.9132 13.5174 17.9556 13.4999 17.9998 13.4999C18.044 13.4999 18.0864 13.5174 18.1176 13.5487C18.1489 13.5799 18.1664 13.6223 18.1664 13.6665V18.6665C18.1664 18.7107 18.1489 18.7531 18.1176 18.7844C18.0864 18.8156 18.044 18.8332 17.9998 18.8332ZM16.9998 24.4999C16.9998 24.2346 17.1051 23.9803 17.2927 23.7928C17.4802 23.6052 17.7346 23.4999 17.9998 23.4999C18.265 23.4999 18.5194 23.6052 18.7069 23.7928C18.8944 23.9803 18.9998 24.2346 18.9998 24.4999C18.9998 24.7651 18.8944 25.0194 18.7069 25.207C18.5194 25.3945 18.265 25.4999 17.9998 25.4999C17.7346 25.4999 17.4802 25.3945 17.2927 25.207C17.1051 25.0194 16.9998 24.7651 16.9998 24.4999Z" stroke="#007D53" stroke-width="3"/>
</svg>
