<svg width="72" height="72" viewBox="0 0 72 72" fill="none" xmlns="http://www.w3.org/2000/svg">
<rect width="72" height="72" rx="36" fill="#007D53" fill-opacity="0.08"/>
<path d="M20.2748 49.5678L20.7657 48.635L34.6724 22.2134L35.1655 21.2765C34.8459 21.4381 34.5667 21.6989 34.3772 22.0589L20.2748 49.5678ZM20.2748 49.5678C20.228 49.2127 20.2852 48.8362 20.4722 48.4806C20.4722 48.4805 20.4723 48.4803 20.4724 48.4802L34.3772 22.059L20.2748 49.5678ZM49.9064 50.8337H50.9635C50.6703 51.0417 50.3088 51.167 49.9048 51.167H22.0948C21.6916 51.167 21.3306 51.0416 21.0377 50.8337H22.0931H49.9064ZM51.7258 49.5697L51.2338 48.635L37.3271 22.2134L36.834 21.2765C37.1536 21.4381 37.4329 21.6989 37.6224 22.059L51.5274 48.4789C51.7153 48.836 51.7729 49.2138 51.7258 49.5697ZM35.9998 37.8337C35.9556 37.8337 35.9132 37.8161 35.8819 37.7849L34.8637 38.8031L35.8819 37.7849C35.8507 37.7536 35.8331 37.7112 35.8331 37.667V32.667C35.8331 32.6228 35.8507 32.5804 35.8819 32.5492C35.9132 32.5179 35.9556 32.5004 35.9998 32.5004C36.044 32.5004 36.0864 32.5179 36.1176 32.5492C36.1489 32.5804 36.1664 32.6228 36.1664 32.667V37.667C36.1664 37.7112 36.1489 37.7536 36.1176 37.7849C36.0864 37.8161 36.044 37.8337 35.9998 37.8337ZM34.9998 43.5004C34.9998 43.2351 35.1051 42.9808 35.2927 42.7932C35.4802 42.6057 35.7346 42.5004 35.9998 42.5004C36.265 42.5004 36.5194 42.6057 36.7069 42.7932C36.8944 42.9808 36.9998 43.2351 36.9998 43.5004C36.9998 43.7656 36.8944 44.0199 36.7069 44.2075C36.5194 44.395 36.265 44.5004 35.9998 44.5004C35.7346 44.5004 35.4802 44.395 35.2927 44.2075C35.1051 44.0199 34.9998 43.7656 34.9998 43.5004Z" stroke="#007D53" stroke-width="3"/>
</svg>
