<svg width="20" height="21" viewBox="0 0 20 21" fill="none" xmlns="http://www.w3.org/2000/svg">
<g opacity="0.8">
<path d="M17.5 6.01841V14.3517C17.5 16.8517 16.25 18.5184 13.3333 18.5184H6.66667C3.75 18.5184 2.5 16.8517 2.5 14.3517V6.01841C2.5 3.51841 3.75 1.85175 6.66667 1.85175H13.3333C16.25 1.85175 17.5 3.51841 17.5 6.01841Z" stroke="#001201" stroke-width="1.5" stroke-miterlimit="10" stroke-linecap="round" stroke-linejoin="round"/>
<path d="M12.9163 1.85175V8.40173C12.9163 8.7684 12.483 8.95173 12.2163 8.71006L10.283 6.92677C10.1247 6.77677 9.87465 6.77677 9.71632 6.92677L7.78303 8.71006C7.51636 8.95173 7.08301 8.7684 7.08301 8.40173V1.85175H12.9163Z" stroke="#001201" stroke-width="1.5" stroke-miterlimit="10" stroke-linecap="round" stroke-linejoin="round"/>
<path d="M11.042 11.8517H14.5837" stroke="#001201" stroke-width="1.5" stroke-miterlimit="10" stroke-linecap="round" stroke-linejoin="round"/>
<path d="M7.5 15.1851H14.5833" stroke="#001201" stroke-width="1.5" stroke-miterlimit="10" stroke-linecap="round" stroke-linejoin="round"/>
</g>
</svg>
