<svg width="20" height="21" viewBox="0 0 20 21" fill="none" xmlns="http://www.w3.org/2000/svg">
<g opacity="0.8">
<path d="M7.63314 9.24323C7.5498 9.2349 7.4498 9.2349 7.35814 9.24323C5.3748 9.17656 3.7998 7.55156 3.7998 5.55156C3.7998 3.5099 5.4498 1.85156 7.4998 1.85156C9.54147 1.85156 11.1998 3.5099 11.1998 5.55156C11.1915 7.55156 9.61647 9.17656 7.63314 9.24323Z" stroke="#001201" stroke-width="1.5" stroke-linecap="round" stroke-linejoin="round"/>
<path d="M13.6747 3.51953C15.2914 3.51953 16.5914 4.82786 16.5914 6.4362C16.5914 8.0112 15.3414 9.29453 13.7831 9.35287C13.7164 9.34453 13.6414 9.34453 13.5664 9.35287" stroke="#001201" stroke-width="1.5" stroke-linecap="round" stroke-linejoin="round"/>
<path d="M3.4666 12.3195C1.44993 13.6695 1.44993 15.8695 3.4666 17.2112C5.75827 18.7445 9.5166 18.7445 11.8083 17.2112C13.8249 15.8612 13.8249 13.6612 11.8083 12.3195C9.52494 10.7945 5.7666 10.7945 3.4666 12.3195Z" stroke="#001201" stroke-width="1.5" stroke-linecap="round" stroke-linejoin="round"/>
<path d="M15.2832 16.8516C15.8832 16.7266 16.4499 16.4849 16.9165 16.1266C18.2165 15.1516 18.2165 13.5432 16.9165 12.5682C16.4582 12.2182 15.8999 11.9849 15.3082 11.8516" stroke="#001201" stroke-width="1.5" stroke-linecap="round" stroke-linejoin="round"/>
</g>
</svg>
