<svg width="17" height="18" viewBox="0 0 17 18" fill="none" xmlns="http://www.w3.org/2000/svg">
<path d="M13.4593 13.5318L13.1366 14.0379L13.5596 14.4637L15.5994 16.5167L15.4957 16.6203L13.426 14.5838L13.0048 14.1693L12.5033 14.4819C12.0436 14.7684 11.4971 14.9351 10.9167 14.9351C9.24755 14.9351 7.91667 13.6042 7.91667 11.9351C7.91667 10.2659 9.24755 8.93506 10.9167 8.93506C12.5858 8.93506 13.9167 10.2659 13.9167 11.9351C13.9167 12.5262 13.7488 13.0778 13.4593 13.5318ZM2.16667 14.7684H5.43898C5.46806 14.8245 5.49798 14.8801 5.52869 14.9351H2.16667C1.96789 14.9351 1.785 14.8736 1.63574 14.7684H2.16667ZM14.75 2.35173V7.09518C14.6952 7.05093 14.6396 7.00752 14.5833 6.96497V2.35173V1.82079C14.6885 1.97006 14.75 2.15295 14.75 2.35173ZM13.8333 1.43506C14.0321 1.43506 14.215 1.49653 14.3643 1.60173H13.8333H2.16667H1.63574C1.785 1.49653 1.96789 1.43506 2.16667 1.43506H13.8333ZM1.41667 1.8208V2.35173V14.0184V14.5493C1.31147 14.4001 1.25 14.2172 1.25 14.0184V2.35173C1.25 2.15295 1.31147 1.97006 1.41667 1.8208ZM10.9167 9.10173C10.1652 9.10173 9.44455 9.40024 8.9132 9.93159C8.38184 10.4629 8.08333 11.1836 8.08333 11.9351C8.08333 12.6865 8.38184 13.4072 8.9132 13.9385C9.44455 14.4699 10.1652 14.7684 10.9167 14.7684C11.6681 14.7684 12.3888 14.4699 12.9201 13.9385C13.4515 13.4072 13.75 12.6865 13.75 11.9351C13.75 11.1836 13.4515 10.4629 12.9201 9.93159C12.3888 9.40024 11.6681 9.10173 10.9167 9.10173ZM4.58333 4.76839H11.4167V4.93506H4.58333V4.76839ZM4.58333 8.10173H6.07678C6.03254 8.15657 5.98913 8.21214 5.94657 8.26839H4.58333V8.10173ZM4.58333 11.4351H4.77062C4.76609 11.4905 4.76228 11.5461 4.75922 11.6017H4.58333V11.4351Z" stroke="#001201" stroke-width="1.5"/>
</svg>
