<svg width="45" height="44" viewBox="0 0 45 44" fill="none" xmlns="http://www.w3.org/2000/svg">
<rect x="0.333496" width="44" height="44" rx="22" fill="#B9A325" fill-opacity="0.12"/>
<path d="M18.6315 30.7529L18.6317 30.753C19.783 31.2501 21.0153 31.5 22.3335 31.5C23.6517 31.5 24.884 31.2501 26.0353 30.753L26.0355 30.7529C27.1965 30.2522 28.2015 29.5749 29.0549 28.7214C29.9084 27.868 30.5857 26.863 31.0864 25.702L31.0865 25.7018C31.5836 24.5505 31.8335 23.3182 31.8335 22C31.8335 20.6818 31.5836 19.4495 31.0865 18.2982L31.0864 18.298C30.5857 17.137 29.9084 16.132 29.0549 15.2786C28.2015 14.4251 27.1965 13.7475 26.0355 13.2461L18.6315 30.7529ZM18.6315 30.7529C17.4705 30.2522 16.4655 29.5749 15.612 28.7214C14.7586 27.868 14.0813 26.863 13.5806 25.702L13.5805 25.7018M18.6315 30.7529L13.5805 25.7018M13.5805 25.7018C13.0834 24.5505 12.8335 23.3182 12.8335 22C12.8335 20.6818 13.0834 19.4495 13.5805 18.2982L13.5806 18.298M13.5805 25.7018L13.5806 18.298M13.5806 18.298C14.0813 17.137 14.7586 16.132 15.612 15.2786M13.5806 18.298L15.612 15.2786M15.612 15.2786C16.4655 14.4251 17.4705 13.7475 18.6315 13.2461L15.612 15.2786ZM18.0423 22.708L18.0415 22.7089C17.8451 22.9058 17.6189 23 17.3335 23C17.0481 23 16.8219 22.9058 16.6255 22.7088L16.6246 22.708C16.4277 22.5116 16.3335 22.2854 16.3335 22C16.3335 21.7146 16.4277 21.4884 16.6246 21.292L16.6255 21.2911C16.8219 21.0942 17.0481 21 17.3335 21C17.6189 21 17.8451 21.0942 18.0415 21.2912L18.0423 21.292C18.2393 21.4884 18.3335 21.7146 18.3335 22C18.3335 22.2854 18.2393 22.5116 18.0423 22.708ZM23.0423 22.708L23.0415 22.7089C22.8451 22.9058 22.6189 23 22.3335 23C22.0481 23 21.8219 22.9058 21.6255 22.7088L21.6246 22.708C21.4277 22.5116 21.3335 22.2854 21.3335 22C21.3335 21.7146 21.4277 21.4884 21.6246 21.292L21.6255 21.2911C21.8219 21.0942 22.0481 21 22.3335 21C22.6189 21 22.8451 21.0942 23.0415 21.2912L23.0423 21.292C23.2393 21.4884 23.3335 21.7146 23.3335 22C23.3335 22.2854 23.2393 22.5116 23.0423 22.708ZM28.0423 22.708L28.0415 22.7089C27.8451 22.9058 27.6189 23 27.3335 23C27.0481 23 26.8219 22.9058 26.6255 22.7088L26.6246 22.708C26.4277 22.5116 26.3335 22.2854 26.3335 22C26.3335 21.7146 26.4277 21.4884 26.6246 21.292L26.6255 21.2911C26.8219 21.0942 27.0481 21 27.3335 21C27.6189 21 27.8451 21.0942 28.0415 21.2912L28.0423 21.292C28.2393 21.4884 28.3335 21.7146 28.3335 22C28.3335 22.2854 28.2393 22.5116 28.0423 22.708ZM18.6317 13.246C19.783 12.7496 21.0153 12.5 22.3335 12.5C23.6517 12.5 24.884 12.7496 26.0353 13.246H18.6317ZM22.3335 30.5C24.6966 30.5 26.7163 29.6743 28.362 28.0286C30.0078 26.3828 30.8335 24.3631 30.8335 22C30.8335 19.6369 30.0078 17.6172 28.362 15.9714C26.7163 14.3257 24.6966 13.5 22.3335 13.5C19.9704 13.5 17.9507 14.3257 16.3049 15.9714C14.6592 17.6172 13.8335 19.6369 13.8335 22C13.8335 24.3631 14.6592 26.3828 16.3049 28.0286C17.9507 29.6743 19.9704 30.5 22.3335 30.5Z" fill="#B9A325" stroke="#B9A325"/>
</svg>
